<svg width="496" height="584" viewBox="0 0 496 584" fill="none" xmlns="http://www.w3.org/2000/svg">
<path d="M0 45.8647L50 10V575L0 540V45.8647Z" fill="white"/>
<path d="M38.6303 64.3982L50.5 9.99999L285.552 175.298L242.55 206.29L38.6303 64.3982Z" fill="white"/>
<path d="M197 307L241.5 275.5L322.983 335.616L296.5 378L197 307Z" fill="white"/>
<path d="M197 307L241.5 275.5L327.5 337L327.5 380L197 307Z" fill="white"/>
<path d="M446.043 11L489 41.5L153.5 276L109.5 247L446.043 11Z" fill="white"/>
<path d="M287.152 349.064L327.691 381.26L48.2557 576.428L11.5 542.5L287.152 349.064Z" fill="white"/>
<path d="M446 11L496 45.064V521L446 556V11Z" fill="white"/>
</svg>
